<svg id="Livello_1" data-name="Livello 1" xmlns="http://www.w3.org/2000/svg" xmlns:xlink="http://www.w3.org/1999/xlink" viewBox="0 0 196.81 43.07">
  <defs>
    <style>
      .cls-1 {
        fill: none;
      }

      .cls-2 {
        font-size: 21.05px;
        font-family: Questrial-Regular, Questrial;
      }

      .cls-2, .cls-6 {
        fill: #0f8f78;
      }

      .cls-3 {
        letter-spacing: 0.02em;
      }

      .cls-4 {
        fill: #f08c05;
      }

      .cls-5 {
        clip-path: url(#clip-path);
      }
    </style>
    <clipPath id="clip-path" transform="translate(-208.87 -253.17)">
      <rect id="SVGID" class="cls-1" x="208.46" y="253.17" width="40.49" height="42.79"/>
    </clipPath>
  </defs>
  <g>
    <text class="cls-2" transform="translate(49.95 20.49)">Viaggidiscutibil<tspan class="cls-3" x="142.12" y="0">i</tspan></text>
    <g>
      <path class="cls-4" d="M260,286.74v-.46h2.64v.46Z" transform="translate(-208.87 -253.17)"/>
      <path class="cls-4" d="M266.63,289.5v-7.9h1.83a3.83,3.83,0,0,1,2,.48,2.93,2.93,0,0,1,1.19,1.36,5.77,5.77,0,0,1,0,4.17,3.12,3.12,0,0,1-1.18,1.4,3.74,3.74,0,0,1-2,.49Zm.55-.46h1.22a3.14,3.14,0,0,0,1.75-.45,2.7,2.7,0,0,0,1-1.25,4.85,4.85,0,0,0,.32-1.82,4.8,4.8,0,0,0-.32-1.81,2.55,2.55,0,0,0-1-1.21,3.22,3.22,0,0,0-1.75-.44h-1.22Z" transform="translate(-208.87 -253.17)"/>
      <path class="cls-4" d="M273.87,289.5v-7.9h.55v7.9Z" transform="translate(-208.87 -253.17)"/>
      <path class="cls-4" d="M282,289.65a3,3,0,0,1-1.72-.51,3.31,3.31,0,0,1-1.17-1.42,5.28,5.28,0,0,1-.42-2.19,5.56,5.56,0,0,1,.24-1.69,3.8,3.8,0,0,1,.69-1.29,3,3,0,0,1,1.07-.82,3.39,3.39,0,0,1,1.37-.28,2.55,2.55,0,0,1,1.22.28,2.49,2.49,0,0,1,.84.67l-.32.34a2.37,2.37,0,0,0-.76-.58,2.22,2.22,0,0,0-1-.2,2.56,2.56,0,0,0-1.49.43,2.81,2.81,0,0,0-1,1.24,4.77,4.77,0,0,0-.35,1.9,5.05,5.05,0,0,0,.34,1.91,2.8,2.8,0,0,0,1,1.26,2.47,2.47,0,0,0,1.48.44,2.56,2.56,0,0,0,1.09-.22,3.09,3.09,0,0,0,.91-.71l.3.31a3.68,3.68,0,0,1-1,.82A2.68,2.68,0,0,1,282,289.65Z" transform="translate(-208.87 -253.17)"/>
      <path class="cls-4" d="M288.42,289.65a3.3,3.3,0,0,1-1-.15,2.13,2.13,0,0,1-.85-.51,2.32,2.32,0,0,1-.59-1,4.52,4.52,0,0,1-.22-1.54V281.6h.55v4.82a3.86,3.86,0,0,0,.29,1.64,1.77,1.77,0,0,0,.77.84,2.42,2.42,0,0,0,2.1,0,1.77,1.77,0,0,0,.8-.84,3.69,3.69,0,0,0,.3-1.64V281.6h.51v4.88a4.52,4.52,0,0,1-.22,1.54,2.44,2.44,0,0,1-.6,1,2.31,2.31,0,0,1-.86.51A3.3,3.3,0,0,1,288.42,289.65Z" transform="translate(-208.87 -253.17)"/>
      <path class="cls-4" d="M293.4,289.5v-7.9H294v7.9Z" transform="translate(-208.87 -253.17)"/>
      <path class="cls-4" d="M298.68,289.5v-7.9h.6l3.31,5.55.45.8c.16.27.3.53.44.8h0c0-.39,0-.77,0-1.15s0-.77,0-1.16V281.6H304v7.9h-.6L300.07,284c-.15-.27-.31-.53-.46-.81l-.43-.79h-.05c0,.37,0,.74.05,1.11s0,.74,0,1.14v4.9Z" transform="translate(-208.87 -253.17)"/>
      <path class="cls-4" d="M309.06,289.65a2.83,2.83,0,0,1-1.68-.51,3.42,3.42,0,0,1-1.16-1.44,5.84,5.84,0,0,1,0-4.35,3.33,3.33,0,0,1,1.16-1.41,3,3,0,0,1,1.68-.49,3,3,0,0,1,1.68.49,3.33,3.33,0,0,1,1.16,1.41,5.84,5.84,0,0,1,0,4.35,3.42,3.42,0,0,1-1.16,1.44A2.88,2.88,0,0,1,309.06,289.65Zm0-.51a2.28,2.28,0,0,0,1.4-.45,3,3,0,0,0,.94-1.26,5,5,0,0,0,.33-1.91,4.91,4.91,0,0,0-.33-1.89,3,3,0,0,0-.94-1.24,2.51,2.51,0,0,0-2.81,0,2.89,2.89,0,0,0-.93,1.24,4.73,4.73,0,0,0-.34,1.89,4.83,4.83,0,0,0,.34,1.91,2.89,2.89,0,0,0,.93,1.26A2.28,2.28,0,0,0,309.06,289.14Z" transform="translate(-208.87 -253.17)"/>
      <path class="cls-4" d="M314.13,289.5v-7.9h.6l3.31,5.55.46.8c.15.27.3.53.43.8H319c0-.39,0-.77,0-1.15s0-.77,0-1.16V281.6h.53v7.9h-.6L315.52,284l-.45-.81c-.15-.27-.3-.53-.43-.79h-.05c0,.37,0,.74.05,1.11s0,.74,0,1.14v4.9Z" transform="translate(-208.87 -253.17)"/>
      <path class="cls-4" d="M323.1,289.5l2.78-7.9h.55l2.79,7.9h-.58l-1.58-4.65c-.16-.47-.32-.93-.46-1.36s-.28-.9-.42-1.38h-.05q-.19.72-.42,1.38c-.14.43-.29.89-.45,1.36l-1.61,4.65Zm1.27-2.71v-.47h3.54v.47Z" transform="translate(-208.87 -253.17)"/>
      <path class="cls-4" d="M331.8,289.5l-2.57-7.9h.59l1.41,4.62c.11.32.2.63.29.91s.18.56.26.83l.29.9h.05l.28-.9c.08-.27.17-.55.26-.83s.18-.59.29-.91l1.51-4.62H335l-2.64,7.9Z" transform="translate(-208.87 -253.17)"/>
      <path class="cls-4" d="M336.24,289.5v-7.9h4.33v.48h-3.78v3H340v.48h-3.17V289h3.9v.48Z" transform="translate(-208.87 -253.17)"/>
      <path class="cls-4" d="M343.87,289.5l-2.57-7.9h.59l1.41,4.62c.11.32.2.63.29.91l.27.83c.08.28.18.58.28.9h.05l.28-.9c.09-.27.17-.55.26-.83l.29-.91,1.51-4.62h.57l-2.64,7.9Z" transform="translate(-208.87 -253.17)"/>
      <path class="cls-4" d="M348.31,289.5v-7.9h.55v7.9Z" transform="translate(-208.87 -253.17)"/>
      <path class="cls-4" d="M353.59,289.5v-7.9h2.13a4.12,4.12,0,0,1,1.39.2,2,2,0,0,1,.91.63,1.78,1.78,0,0,1,.32,1.09,1.88,1.88,0,0,1-.31,1.08,1.61,1.61,0,0,1-.91.64v.05a2.11,2.11,0,0,1,1.23.6,1.79,1.79,0,0,1,.47,1.3,2.07,2.07,0,0,1-1.38,2.06,4.33,4.33,0,0,1-1.56.25Zm.55-4.42h1.37a2.89,2.89,0,0,0,1.74-.41,1.3,1.3,0,0,0,.54-1.09,1.28,1.28,0,0,0-.57-1.19,3.28,3.28,0,0,0-1.65-.34h-1.43Zm0,4h1.6a3.32,3.32,0,0,0,1.86-.45,1.54,1.54,0,0,0,.68-1.39,1.39,1.39,0,0,0-.66-1.27,3.62,3.62,0,0,0-1.88-.41h-1.6Z" transform="translate(-208.87 -253.17)"/>
      <path class="cls-4" d="M360.52,289.5v-7.9h.56v7.9Z" transform="translate(-208.87 -253.17)"/>
      <path class="cls-4" d="M365.47,289.65a3.25,3.25,0,0,1-1.53-.34,4,4,0,0,1-1.15-.85l.35-.36a3,3,0,0,0,1,.76,3,3,0,0,0,1.3.28,2.21,2.21,0,0,0,1.44-.43,1.45,1.45,0,0,0,.53-1.15,1.38,1.38,0,0,0-.71-1.28,7.81,7.81,0,0,0-.71-.38l-1.2-.54a4.74,4.74,0,0,1-.73-.39,2.29,2.29,0,0,1-.62-.62,1.66,1.66,0,0,1-.26-1,1.75,1.75,0,0,1,.3-1,2,2,0,0,1,.82-.68,2.64,2.64,0,0,1,1.19-.25,2.8,2.8,0,0,1,1.28.28,2.89,2.89,0,0,1,.91.66l-.3.36a3,3,0,0,0-.83-.58,2.61,2.61,0,0,0-1.06-.21,2,2,0,0,0-1.27.38,1.24,1.24,0,0,0-.49,1,1.2,1.2,0,0,0,.23.75,1.72,1.72,0,0,0,.54.46l.6.32,1.2.52a5.22,5.22,0,0,1,.84.47,1.87,1.87,0,0,1,.61.64,2,2,0,0,1,.22,1,2,2,0,0,1-.31,1.09,2,2,0,0,1-.87.76A3,3,0,0,1,365.47,289.65Z" transform="translate(-208.87 -253.17)"/>
      <path class="cls-4" d="M372.4,289.65a2.88,2.88,0,0,1-1.68-.51,3.48,3.48,0,0,1-1.15-1.44,5.84,5.84,0,0,1,0-4.35,3.38,3.38,0,0,1,1.15-1.41,3.14,3.14,0,0,1,3.37,0,3.33,3.33,0,0,1,1.16,1.41,5.84,5.84,0,0,1,0,4.35,3.42,3.42,0,0,1-1.16,1.44A2.88,2.88,0,0,1,372.4,289.65Zm0-.51a2.28,2.28,0,0,0,1.41-.45,2.89,2.89,0,0,0,.93-1.26,4.83,4.83,0,0,0,.34-1.91,4.73,4.73,0,0,0-.34-1.89,2.89,2.89,0,0,0-.93-1.24,2.51,2.51,0,0,0-2.81,0,3,3,0,0,0-.94,1.24,4.91,4.91,0,0,0-.33,1.89,5,5,0,0,0,.33,1.91,3,3,0,0,0,.94,1.26A2.28,2.28,0,0,0,372.4,289.14Z" transform="translate(-208.87 -253.17)"/>
      <path class="cls-4" d="M380.37,289.65a3.13,3.13,0,0,1-1.78-.51,3.35,3.35,0,0,1-1.19-1.42,5.28,5.28,0,0,1-.42-2.19,5.2,5.2,0,0,1,.25-1.68,3.83,3.83,0,0,1,.71-1.29,3.12,3.12,0,0,1,1.11-.83,3.6,3.6,0,0,1,1.42-.28,2.51,2.51,0,0,1,1.32.31,3.69,3.69,0,0,1,.84.64l-.33.36a2.8,2.8,0,0,0-.73-.57,2.28,2.28,0,0,0-1.09-.23,2.78,2.78,0,0,0-1.57.43,2.87,2.87,0,0,0-1,1.24,4.6,4.6,0,0,0-.36,1.9,5.05,5.05,0,0,0,.34,1.91,2.91,2.91,0,0,0,1,1.26,2.59,2.59,0,0,0,1.54.44,3.29,3.29,0,0,0,1-.15,1.83,1.83,0,0,0,.76-.45v-2.46h-1.89v-.46h2.42v3.13a3,3,0,0,1-1,.65A3.69,3.69,0,0,1,380.37,289.65Z" transform="translate(-208.87 -253.17)"/>
      <path class="cls-4" d="M384.74,289.5v-7.9h.6l3.31,5.55.46.8.43.8h0c0-.39,0-.77,0-1.15s0-.77,0-1.16V281.6H390v7.9h-.6L386.13,284l-.46-.81-.43-.79h0c0,.37,0,.74,0,1.11s0,.74,0,1.14v4.9Z" transform="translate(-208.87 -253.17)"/>
      <path class="cls-4" d="M395.12,289.65a2.88,2.88,0,0,1-1.68-.51,3.4,3.4,0,0,1-1.15-1.44,5.84,5.84,0,0,1,0-4.35,3.31,3.31,0,0,1,1.15-1.41,3.13,3.13,0,0,1,3.36,0,3.26,3.26,0,0,1,1.16,1.41,5.84,5.84,0,0,1,0,4.35,3.35,3.35,0,0,1-1.16,1.44A2.88,2.88,0,0,1,395.12,289.65Zm0-.51a2.26,2.26,0,0,0,1.4-.45,2.91,2.91,0,0,0,.94-1.26,5,5,0,0,0,.33-1.91,4.91,4.91,0,0,0-.33-1.89,2.91,2.91,0,0,0-.94-1.24,2.3,2.3,0,0,0-1.4-.43,2.36,2.36,0,0,0-1.41.43,2.89,2.89,0,0,0-.93,1.24,4.73,4.73,0,0,0-.34,1.89,4.83,4.83,0,0,0,.34,1.91,2.89,2.89,0,0,0,.93,1.26A2.3,2.3,0,0,0,395.12,289.14Z" transform="translate(-208.87 -253.17)"/>
      <path class="cls-4" d="M401.91,286.74v-.46h2.64v.46Z" transform="translate(-208.87 -253.17)"/>
    </g>
  </g>
  <g class="cls-5">
    <path class="cls-6" d="M221.08,274.13l-1.32-2.83a.78.78,0,0,0-.36-.36l-2.83-1.32.37-.37,2.06.62a.74.74,0,0,0,.77-.2l4.27-4.48a.75.75,0,0,0-.23-1.21l-5.06-2.37.54-.53,6.28,1.9a.74.74,0,0,0,.76-.2l2.86-3a1.2,1.2,0,0,1,.87-.38,1.11,1.11,0,0,1,.87.36,1.15,1.15,0,0,1,.36.87,1.2,1.2,0,0,1-.38.87l-3,2.86a.72.72,0,0,0-.2.76l1.9,6.28-.53.54-2.37-5.06a.74.74,0,0,0-.55-.42.76.76,0,0,0-.66.19L221,270.93a.74.74,0,0,0-.2.77l.62,2.06Zm1.32-2.43,3.4-3.24,2.38,5.09a.76.76,0,0,0,1.22.21l1.61-1.61a.75.75,0,0,0,.19-.75l-1.89-6.28,2.66-2.54a2.72,2.72,0,0,0,.05-3.9,2.84,2.84,0,0,0-2-.8,2.7,2.7,0,0,0-1.94.85l-2.54,2.66-6.28-1.89a.75.75,0,0,0-.75.19l-1.61,1.61a.74.74,0,0,0-.21.67.78.78,0,0,0,.42.55l5.09,2.38L219,268.3l-2.05-.63a.77.77,0,0,0-.75.2l-1.45,1.44a.74.74,0,0,0-.21.66.77.77,0,0,0,.43.56l3.55,1.66,1.66,3.55a.76.76,0,0,0,.56.42h.13a.75.75,0,0,0,.53-.22l1.44-1.45a.77.77,0,0,0,.2-.75Z" transform="translate(-208.87 -253.17)"/>
    <path class="cls-4" d="M229,291.89a18.6,18.6,0,0,1-16.15-9.4,42.15,42.15,0,0,1,4-6.86.76.76,0,0,0-1.23-.9,47,47,0,0,0-3.62,6,18.6,18.6,0,0,1,31.24-19.5c-1.09.89-2.9,2.43-2.86,4.07a2.66,2.66,0,0,1-1.58,2c-.22.1-.75.3-1.05,0a1.73,1.73,0,0,0-1.92-.17,4.4,4.4,0,0,0-2.45,3.56,2.41,2.41,0,0,0,1.57,2.26,5.91,5.91,0,0,0,5.09-.42,3.18,3.18,0,0,1,1.91-.47,7.13,7.13,0,0,1,1.78,1.58c1,1.11,2.27,2.42,3.67,2.56A18.66,18.66,0,0,1,229,291.89Zm18.54-17.08c-.78-.05-1.66-.91-2.76-2.08a7.23,7.23,0,0,0-2.35-2,4.13,4.13,0,0,0-3,.5c-1.2.53-2.44,1.07-3.87.43a1,1,0,0,1-.57-1.46c.4-1.05,1.47-1.78,1.75-1.7a2.4,2.4,0,0,0,2.69.22,4.12,4.12,0,0,0,2.46-3.43c0-.9,1.56-2.25,2.28-2.85a18.56,18.56,0,0,1,3.48,10.81C247.59,273.8,247.56,274.3,247.52,274.81Zm1.5.29s0,0,0,0c.05-.59.08-1.19.08-1.8A20,20,0,0,0,244.87,261a.22.22,0,0,0-.05-.08s0,0-.06-.05a20.1,20.1,0,0,0-33.62,21.72c-1.55,3.63-2.51,7.76-.71,10.56,1.33,2.07,4,3.12,7.9,3.12a36,36,0,0,0,7-.82.77.77,0,0,0,.59-.9.75.75,0,0,0-.89-.58c-7.21,1.48-11.7.93-13.36-1.64-1.27-2-.74-5,.42-8.09a20.11,20.11,0,0,0,36.82-8.32A.75.75,0,0,0,249,275.1Z" transform="translate(-208.87 -253.17)"/>
    <path class="cls-4" d="M233.26,282c-1.2.78-2.23,1.45-2.32,2.47-.12,1.41-1.11,4.16-1.94,4.58a.17.17,0,0,1-.22,0c-.68-.4-.61-2-.55-3.58a13.74,13.74,0,0,0-.13-3.53,6.1,6.1,0,0,0-1.67-2.7c-1.07-1.21-1.84-2.07-1-3.58a6.34,6.34,0,0,0,2.53,1.83,11.34,11.34,0,0,0,2.91.45c1.92.15,4.11.32,4.56,1.52C235.76,280.26,234.73,281,233.26,282ZM231,276.41a10.69,10.69,0,0,1-2.48-.36,4.83,4.83,0,0,1-2.39-2.07.73.73,0,0,0-.58-.41.75.75,0,0,0-.67.27c-2.53,3.06-.81,5,.43,6.38a5,5,0,0,1,1.32,2,13,13,0,0,1,.1,3.16c-.08,2-.17,4.07,1.28,4.93a1.66,1.66,0,0,0,1.68.06c1.65-.85,2.64-4.49,2.76-5.79,0-.3,1.08-1,1.64-1.34,1.49-1,3.54-2.32,2.77-4.34S233.26,276.59,231,276.41Z" transform="translate(-208.87 -253.17)"/>
  </g>
</svg>
